<svg width="276" height="166" viewBox="0 0 276 166" version="1.1" xmlns="http://www.w3.org/2000/svg" xmlns:xlink="http://www.w3.org/1999/xlink" xmlns:figma="http://www.figma.com/figma/ns">
<title>Group</title>
<desc>Created using Figma</desc>
<g id="Canvas" transform="translate(50 2254)" figma:type="canvas">
<g id="Group" style="mix-blend-mode:normal;" figma:type="frame">
<g id="Vector" style="mix-blend-mode:normal;" figma:type="vector">
<use xlink:href="#path0_fill" transform="translate(-50 -2254)" fill="#FFFFFF" style="mix-blend-mode:normal;"/>
</g>
<g id="Vector" style="mix-blend-mode:normal;" figma:type="vector">
<use xlink:href="#path1_fill" transform="translate(-31.8269 -2145.46)" fill="#FFFFFF" style="mix-blend-mode:normal;"/>
</g>
<g id="Vector" style="mix-blend-mode:normal;" figma:type="vector">
<use xlink:href="#path2_fill" transform="translate(168.644 -2184.55)" fill="#FFFFFF" style="mix-blend-mode:normal;"/>
</g>
<g id="Vector" style="mix-blend-mode:normal;" figma:type="vector">
<use xlink:href="#path3_fill" transform="translate(63.5253 -2121.39)" fill="#FFFFFF" style="mix-blend-mode:normal;"/>
</g>
</g>
</g>
<defs>
<path id="path0_fill" d="M 218.644 51.5457C 213.038 51.5457 207.635 52.3871 202.51 53.8895L 187.119 14.8802C 184.267 7.65302 177.689 2.64721 169.952 1.81495L 153.355 0.0249801C 151.098 -0.222863 149.098 1.40188 148.853 3.63859C 148.611 5.87529 150.233 7.88557 152.475 8.13035L 169.071 9.92033C 173.779 10.4282 177.778 13.4727 179.513 17.8697L 185.171 32.2078L 96.9864 32.2078L 87.8876 17.0741L 100.436 17.0741L 100.436 8.82186L 59.0763 8.82186L 59.0763 17.0741L 78.2399 17.0741L 89.8257 36.3416L 79.1721 55.6458C 72.4408 52.8705 65.0777 51.3192 57.3528 51.3192C 25.7293 51.3192 0 76.9908 0 108.543C 0 140.099 25.7293 165.771 57.3528 165.771C 86.8817 165.771 111.256 143.385 114.359 114.733L 119.615 114.733C 122.041 122.175 129.051 127.575 137.31 127.575C 147.571 127.575 155.922 119.246 155.922 109.005C 155.922 106.417 155.385 103.954 154.422 101.714L 188.345 40.2397L 194.865 56.7656C 175.091 65.8043 161.294 85.6898 161.294 108.776C 161.294 140.328 187.024 166 218.647 166C 250.271 165.997 276 140.325 276 108.773C 276 77.2173 250.271 51.5457 218.644 51.5457ZM 80.7515 69.8891C 93.3095 77.4835 101.865 90.9618 102.571 106.484L 71.1283 106.484C 70.4597 102.834 68.3713 99.6853 65.4519 97.6107L 80.7515 69.8891ZM 63.112 109.002C 63.112 112.169 60.5299 114.749 57.3528 114.749C 54.1757 114.749 51.5936 112.172 51.5936 109.002C 51.5936 105.832 54.1757 103.256 57.3528 103.256C 60.5299 103.256 63.112 105.832 63.112 109.002ZM 57.3528 153.764C 32.3625 153.764 12.0305 133.478 12.0305 108.543C 12.0305 83.6091 32.3625 63.3228 57.3528 63.3228C 62.974 63.3228 68.3376 64.3968 73.3087 66.2724L 57.4479 95.013C 57.4141 95.013 57.3835 95.0038 57.3528 95.0038C 49.6156 95.0038 43.3228 101.286 43.3228 109.002C 43.3228 116.719 49.6187 123.001 57.3528 123.001C 63.0384 123.001 67.9236 119.592 70.1255 114.73L 102.2 114.73C 99.1607 136.742 80.2363 153.764 57.3528 153.764ZM 118.892 106.484L 114.604 106.484C 113.884 86.4425 102.816 69.0323 86.5536 59.3787L 94.7508 44.5265L 125.111 95.016C 121.793 97.8953 119.514 101.925 118.892 106.484ZM 137.31 119.317C 131.609 119.317 126.972 114.687 126.972 109.002C 126.972 103.314 131.612 98.6878 137.31 98.6878C 143.011 98.6878 147.648 103.317 147.648 109.002C 147.648 114.69 143.011 119.317 137.31 119.317ZM 148.945 94.5326C 145.756 91.9746 141.711 90.4325 137.31 90.4325C 135.611 90.4325 133.973 90.6803 132.406 91.1087L 101.945 40.457L 178.787 40.457L 148.945 94.5326ZM 218.644 153.993C 193.654 153.993 173.322 133.707 173.322 108.773C 173.322 90.7568 183.96 75.2131 199.275 67.9492L 210.803 97.1671C 207.071 99.6853 204.611 103.948 204.611 108.773C 204.611 116.493 210.907 122.771 218.641 122.771C 226.375 122.771 232.671 116.493 232.671 108.773C 232.671 101.053 226.375 94.7743 218.641 94.7743L 218.638 94.7743L 206.945 65.1342C 210.683 64.1336 214.59 63.5523 218.641 63.5523C 243.631 63.5523 263.963 83.8386 263.963 108.773C 263.966 133.707 243.637 153.993 218.644 153.993ZM 218.644 103.027C 221.818 103.027 224.403 105.603 224.403 108.773C 224.403 111.943 221.821 114.516 218.644 114.516C 215.47 114.516 212.885 111.94 212.885 108.773C 212.885 105.606 215.47 103.027 218.644 103.027Z"/>
<path id="path1_fill" d="M 8.1052 -1.30728e-06L -1.09965e-06 -1.30728e-06C -1.09965e-06 21.5531 17.5751 39.0918 39.1797 39.0918L 39.1797 31.0048C 22.0463 31.0048 8.1052 17.095 8.1052 -1.30728e-06Z"/>
<path id="path2_fill" d="M -8.98438e-06 5.69601e-06L -8.98438e-06 8.08701C 17.1335 8.08701 31.0745 21.9937 31.0745 39.0888L 39.1797 39.0888C 39.1797 17.5326 21.6047 5.69601e-06 -8.98438e-06 5.69601e-06Z"/>
<path id="path3_fill" d="M 23.4355 -1.12053e-05L 4.13694 -1.12053e-05C 1.85227 -1.12053e-05 -3.74349e-06 1.84812 -3.74349e-06 4.12766C -3.74349e-06 6.4072 1.85227 8.25531 4.13694 8.25531L 23.4355 8.25531C 25.7201 8.25531 27.5724 6.4072 27.5724 4.12766C 27.5724 1.84812 25.7171 -1.12053e-05 23.4355 -1.12053e-05Z"/>
</defs>
</svg>
