<svg width="153" height="153" viewBox="0 0 153 153" version="1.1" xmlns="http://www.w3.org/2000/svg" xmlns:xlink="http://www.w3.org/1999/xlink" xmlns:figma="http://www.figma.com/figma/ns">
<title>Group</title>
<desc>Created using Figma</desc>
<g id="Canvas" transform="translate(108 -5226)" figma:type="canvas">
<g id="Group" style="mix-blend-mode:normal;" figma:type="frame">
<g id="Ellipse" style="mix-blend-mode:normal;" filter="url(#filter0_i)" figma:type="ellipse">
<use xlink:href="#path0_fill" transform="translate(-107.555 5226.23)" fill="#EEF2F5" style="mix-blend-mode:normal;"/>
</g>
<g id="Vector" style="mix-blend-mode:normal;" filter="url(#filter1_d)" figma:type="vector">
<use xlink:href="#path1_fill" transform="translate(-81.5549 5244.23)" fill="url(#paint1_linear)" style="mix-blend-mode:normal;"/>
</g>
<g id="noun_640974_cc" style="mix-blend-mode:normal;" figma:type="frame">
<g id="Vector" style="mix-blend-mode:normal;" figma:type="vector">
<use xlink:href="#path2_stroke" transform="translate(-58.0397 5276.55)" fill="#7E7E7E" style="mix-blend-mode:normal;"/>
</g>
<g id="Vector" style="mix-blend-mode:normal;" figma:type="vector">
<use xlink:href="#path3_stroke" transform="translate(-7.17997 5280.4)" fill="#7E7E7E" style="mix-blend-mode:normal;"/>
</g>
<g id="Vector" style="mix-blend-mode:normal;" figma:type="vector">
<use xlink:href="#path4_stroke" transform="translate(-67.5549 5280.4)" fill="#7E7E7E" style="mix-blend-mode:normal;"/>
</g>
<g id="Vector" style="mix-blend-mode:normal;" figma:type="vector">
<use xlink:href="#path5_stroke" transform="translate(-67.5438 5293.22)" fill="#7E7E7E" style="mix-blend-mode:normal;"/>
</g>
<g id="Vector" style="mix-blend-mode:normal;" figma:type="vector">
<use xlink:href="#path6_stroke" transform="translate(-3.07008 5293.22)" fill="#7E7E7E" style="mix-blend-mode:normal;"/>
</g>
<g id="Vector" style="mix-blend-mode:normal;" figma:type="vector">
<use xlink:href="#path7_stroke" transform="translate(-67.4154 5290.48)" fill="#7E7E7E" style="mix-blend-mode:normal;"/>
</g>
<g id="Vector" style="mix-blend-mode:normal;" figma:type="vector">
<use xlink:href="#path8_stroke" transform="translate(-2.94165 5290.48)" fill="#7E7E7E" style="mix-blend-mode:normal;"/>
</g>
<g id="Vector" style="mix-blend-mode:normal;" figma:type="vector">
<use xlink:href="#path9_stroke" transform="translate(-53.9298 5305.16)" fill="#7E7E7E" style="mix-blend-mode:normal;"/>
</g>
<g id="Vector" style="mix-blend-mode:normal;" figma:type="vector">
<use xlink:href="#path10_stroke" transform="translate(-15.6566 5305.16)" fill="#7E7E7E" style="mix-blend-mode:normal;"/>
</g>
<g id="Vector" style="mix-blend-mode:normal;" figma:type="vector">
<use xlink:href="#path11_stroke" transform="translate(-38.9031 5305.16)" fill="#7E7E7E" style="mix-blend-mode:normal;"/>
</g>
<g id="Vector" style="mix-blend-mode:normal;" figma:type="vector">
<use xlink:href="#path12_stroke" transform="translate(-34.9216 5294.71)" fill="#7E7E7E" style="mix-blend-mode:normal;"/>
</g>
<g id="Group" style="mix-blend-mode:normal;" figma:type="frame">
<g id="Vector" style="mix-blend-mode:normal;" figma:type="vector">
<use xlink:href="#path13_stroke" transform="translate(-48.6641 5276.55)" fill="#7E7E7E" style="mix-blend-mode:normal;"/>
</g>
<g id="Vector" style="mix-blend-mode:normal;" figma:type="vector">
<use xlink:href="#path14_stroke" transform="translate(-25.6744 5276.55)" fill="#7E7E7E" style="mix-blend-mode:normal;"/>
</g>
</g>
<g id="Vector" style="mix-blend-mode:normal;" figma:type="vector">
<use xlink:href="#path15_stroke" transform="translate(-48.6641 5313.5)" fill="#7E7E7E" style="mix-blend-mode:normal;"/>
</g>
<g id="Vector" style="mix-blend-mode:normal;" figma:type="vector">
<use xlink:href="#path16_stroke" transform="translate(-25.6744 5313.5)" fill="#7E7E7E" style="mix-blend-mode:normal;"/>
</g>
</g>
</g>
</g>
<defs>
<filter id="filter0_i" filterUnits="userSpaceOnUse" x="-112" y="5223" width="161" height="160" color-interpolation-filters="sRGB">
<feFlood flood-opacity="0" result="BackgroundImageFix"/>
<feBlend mode="normal" in="SourceGraphic" in2="BackgroundImageFix" result="shape"/>
<desc>type="innerShadow" x="0" y="1" size="4" spread="0" color="0,0,0,0.25" blend="normal"</desc>
<feColorMatrix in="SourceAlpha" type="matrix" values="0 0 0 0 0 0 0 0 0 0 0 0 0 0 0 0 0 0 255 0" result="hardAlpha"/>
<feOffset dx="0" dy="1"/>
<feGaussianBlur stdDeviation="2"/>
<feComposite in2="hardAlpha" operator="arithmetic" k2="-1" k3="1"/>
<feColorMatrix type="matrix" values="0 0 0 0 0 0 0 0 0 0 0 0 0 0 0 0 0 0 0.25 0"/>
<feBlend mode="normal" in2="shape" result="effect1_innerShadow"/>
</filter>
<filter id="filter1_d" filterUnits="userSpaceOnUse" x="-86" y="5245" width="109" height="122" color-interpolation-filters="sRGB">
<feFlood flood-opacity="0" result="BackgroundImageFix"/>
<desc>type="dropShadow" x="0" y="4" size="4" spread="0" color="0,0,0,0.25" blend="normal"</desc>
<feColorMatrix in="SourceAlpha" type="matrix" values="0 0 0 0 0 0 0 0 0 0 0 0 0 0 0 0 0 0 255 0"/>
<feOffset dx="0" dy="4"/>
<feGaussianBlur stdDeviation="2"/>
<feColorMatrix type="matrix" values="0 0 0 0 0 0 0 0 0 0 0 0 0 0 0 0 0 0 0.25 0"/>
<feBlend mode="normal" in2="BackgroundImageFix" result="effect1_dropShadow"/>
<feBlend mode="normal" in="SourceGraphic" in2="effect1_dropShadow" result="shape"/>
</filter>
<linearGradient id="paint1_linear" x1="0" y1="0" x2="1" y2="0" gradientUnits="userSpaceOnUse" gradientTransform="matrix(6.12323e-15 116 -100 7.10295e-15 100 7.91142e-23)">
<stop offset="0.0222222" stop-color="#FFFFFF"/>
<stop offset="1" stop-color="#F2F2F2"/>
</linearGradient>
<path id="path0_fill" d="M 152 76C 152 117.974 117.974 152 76 152C 34.0264 152 0 117.974 0 76C 0 34.0264 34.0264 0 76 0C 117.974 0 152 34.0264 152 76Z"/>
<path id="path1_fill" d="M 100 82.4546C 100 85.3099 98.4781 87.9489 96.0067 89.3789L 54.0067 113.682C 51.5281 115.116 48.4719 115.116 45.9933 113.682L 3.99333 89.3789C 1.52188 87.9489 0 85.3099 0 82.4546L 0 33.671C 0 30.8215 1.51572 28.187 3.97919 26.7549L 45.9792 2.33755C 48.465 0.89242 51.535 0.89242 54.0208 2.33755L 96.0208 26.7549C 98.4843 28.187 100 30.8215 100 33.671L 100 82.4546Z"/>
<path id="path2_stroke" d="M 4.10988 28.6175L 5.10988 28.6175C 5.10988 28.1604 4.79989 27.7614 4.35692 27.6485L 4.10988 28.6175ZM 50.7313 28.6175L 50.4715 27.6519C 50.0348 27.7694 49.7313 28.1653 49.7313 28.6175L 50.7313 28.6175ZM 54.8412 1.74193L 53.8494 1.61397C 53.8439 1.6564 53.8412 1.69915 53.8412 1.74193L 54.8412 1.74193ZM 53.1716 -1L 50.8597 -1L 50.8597 1L 53.1716 1L 53.1716 -1ZM 50.8597 -1L 4.10988 -1L 4.10988 1L 50.8597 1L 50.8597 -1ZM 4.10988 -1L 1.79807 -1L 1.79807 1L 4.10988 1L 4.10988 -1ZM 1.79807 -1C 0.248452 -1 -1 0.164597 -1 1.74193L 1 1.74193C 1 1.32849 1.29275 1 1.79807 1L 1.79807 -1ZM -1 1.74193L -1 23.3917L 1 23.3917L 1 1.74193L -1 1.74193ZM -1 23.3917C -1 26.348 0.990077 28.8541 3.86284 29.5865L 4.35692 27.6485C 2.3492 27.1367 1 25.4124 1 23.3917L -1 23.3917ZM 3.10988 28.6175L 3.10988 46.7834L 5.10988 46.7834L 5.10988 28.6175L 3.10988 28.6175ZM 3.10988 46.7834C 3.10988 51.3469 6.927 55 11.559 55L 11.559 53C 7.97131 53 5.10988 50.183 5.10988 46.7834L 3.10988 46.7834ZM 11.559 55L 43.2822 55L 43.2822 53L 11.559 53L 11.559 55ZM 43.2822 55C 47.9142 55 51.7313 51.3469 51.7313 46.7834L 49.7313 46.7834C 49.7313 50.183 46.8699 53 43.2822 53L 43.2822 55ZM 51.7313 46.7834L 51.7313 28.6175L 49.7313 28.6175L 49.7313 46.7834L 51.7313 46.7834ZM 50.9912 29.5832C 53.7006 28.854 55.8412 26.3716 55.8412 23.3917L 53.8412 23.3917C 53.8412 25.3888 52.3856 27.1368 50.4715 27.6519L 50.9912 29.5832ZM 55.8412 23.3917L 55.8412 1.74193L 53.8412 1.74193L 53.8412 23.3917L 55.8412 23.3917ZM 55.833 1.8699C 56.0523 0.170151 54.6898 -1 53.1716 -1L 53.1716 1C 53.444 1 53.6272 1.09724 53.7258 1.19785C 53.8154 1.28916 53.8746 1.41907 53.8494 1.61397L 55.833 1.8699Z"/>
<path id="path3_stroke" d="M 4.36675 -1C 3.81446 -1 3.36675 -0.552285 3.36675 0C 3.36675 0.552285 3.81446 1 4.36675 1L 4.36675 -1ZM 13.614 9.45622L 14.6114 9.52745C 14.6119 9.52047 14.6124 9.51349 14.6127 9.50651L 13.614 9.45622ZM 12.2012 29.2396L 11.2037 29.1684C 11.2033 29.1741 11.203 29.1797 11.2027 29.1854L 12.2012 29.2396ZM -1.95974e-06 37.576L -1 37.576C -1 38.1283 -0.552287 38.576 -1.95974e-06 38.576L -1.95974e-06 37.576ZM 0.999998 25.2581C 0.999998 24.7058 0.552283 24.2581 -1.95974e-06 24.2581C -0.552287 24.2581 -1 24.7058 -1 25.2581L 0.999998 25.2581ZM 4.36675 1C 9.08625 1 12.8421 4.90127 12.6152 9.40593L 14.6127 9.50651C 14.8996 3.80841 10.1788 -1 4.36675 -1L 4.36675 1ZM 12.6165 9.38499L 11.2037 29.1684L 13.1987 29.3109L 14.6114 9.52745L 12.6165 9.38499ZM 11.2027 29.1854C 10.9774 33.3314 7.35661 36.576 2.95398 36.576L 2.95398 38.576C 8.31231 38.576 12.9112 34.6041 13.1997 29.2939L 11.2027 29.1854ZM 2.95398 36.576L -1.95974e-06 36.576L -1.95974e-06 38.576L 2.95398 38.576L 2.95398 36.576ZM 0.999998 37.576L 0.999998 25.2581L -1 25.2581L -1 37.576L 0.999998 37.576Z"/>
<path id="path4_stroke" d="M 9.25832 1C 9.8106 1 10.2583 0.552285 10.2583 0C 10.2583 -0.552285 9.8106 -1 9.25832 -1L 9.25832 1ZM 0.0110913 9.45622L -0.987643 9.50651C -0.987292 9.51349 -0.986867 9.52047 -0.986369 9.52745L 0.0110913 9.45622ZM 1.42386 29.2396L 2.42239 29.1854C 2.42208 29.1797 2.42173 29.1741 2.42132 29.1684L 1.42386 29.2396ZM 13.6251 37.576L 13.6251 38.576C 14.1735 38.576 14.6196 38.1343 14.625 37.586L 13.6251 37.576ZM 14.7534 24.6459C 14.7589 24.0936 14.3157 23.6415 13.7634 23.636C 13.2112 23.6305 12.759 24.0738 12.7535 24.626L 14.7534 24.6459ZM 9.25832 -1C 3.44626 -1 -1.27456 3.80841 -0.987643 9.50651L 1.00983 9.40593C 0.783005 4.90127 4.53881 1 9.25832 1L 9.25832 -1ZM -0.986369 9.52745L 0.426403 29.3109L 2.42132 29.1684L 1.00855 9.38499L -0.986369 9.52745ZM 0.425335 29.2939C 0.713828 34.6041 5.31276 38.576 10.6711 38.576L 10.6711 36.576C 6.26845 36.576 2.64763 33.3314 2.42239 29.1854L 0.425335 29.2939ZM 10.6711 38.576L 13.6251 38.576L 13.6251 36.576L 10.6711 36.576L 10.6711 38.576ZM 14.625 37.586L 14.7534 24.6459L 12.7535 24.626L 12.6251 37.5661L 14.625 37.586Z"/>
<path id="path5_stroke" d="M 4.89936e-07 -0.500001C -0.276142 -0.500001 -0.5 -0.276143 -0.5 -7.62939e-07C -0.5 0.276142 -0.276142 0.499999 4.89936e-07 0.499999L 4.89936e-07 -0.500001ZM 9.63253 0.499999C 9.90867 0.499999 10.1325 0.276142 10.1325 -7.62939e-07C 10.1325 -0.276143 9.90867 -0.500001 9.63253 -0.500001L 9.63253 0.499999ZM 4.89936e-07 0.499999L 9.63253 0.499999L 9.63253 -0.500001L 4.89936e-07 -0.500001L 4.89936e-07 0.499999Z"/>
<path id="path6_stroke" d="M 3.91949e-06 -0.500001C -0.276138 -0.500001 -0.499996 -0.276143 -0.499996 -7.62939e-07C -0.499996 0.276142 -0.276138 0.499999 3.91949e-06 0.499999L 3.91949e-06 -0.500001ZM 9.50409 0.499999C 9.78023 0.499999 10.0041 0.276142 10.0041 -7.62939e-07C 10.0041 -0.276143 9.78023 -0.500001 9.50409 -0.500001L 9.50409 0.499999ZM 3.91949e-06 0.499999L 9.50409 0.499999L 9.50409 -0.500001L 3.91949e-06 -0.500001L 3.91949e-06 0.499999Z"/>
<path id="path7_stroke" d="M 9.79872e-07 -0.500002C -0.276141 -0.500002 -0.499999 -0.276144 -0.499999 -1.52588e-06C -0.499999 0.276141 -0.276141 0.499998 9.79872e-07 0.499998L 9.79872e-07 -0.500002ZM 9.5041 0.499998C 9.78024 0.499998 10.0041 0.276141 10.0041 -1.52588e-06C 10.0041 -0.276144 9.78024 -0.500002 9.5041 -0.500002L 9.5041 0.499998ZM 9.79872e-07 0.499998L 9.5041 0.499998L 9.5041 -0.500002L 9.79872e-07 -0.500002L 9.79872e-07 0.499998Z"/>
<path id="path8_stroke" d="M 1.95974e-06 -0.500002C -0.27614 -0.500002 -0.499998 -0.276144 -0.499998 -1.52588e-06C -0.499998 0.276141 -0.27614 0.499998 1.95974e-06 0.499998L 1.95974e-06 -0.500002ZM 9.37566 0.499998C 9.6518 0.499998 9.87566 0.276141 9.87566 -1.52588e-06C 9.87566 -0.276144 9.6518 -0.500002 9.37566 -0.500002L 9.37566 0.499998ZM 1.95974e-06 0.499998L 9.37566 0.499998L 9.37566 -0.500002L 1.95974e-06 -0.500002L 1.95974e-06 0.499998Z"/>
<path id="path9_stroke" d="M 9.79871e-07 -0.999998C -0.552284 -0.999998 -0.999999 -0.552283 -0.999999 1.52588e-06C -0.999999 0.552286 -0.552284 1 9.79871e-07 1L 9.79871e-07 -0.999998ZM 8.86192 1C 9.41421 1 9.86192 0.552286 9.86192 1.52588e-06C 9.86192 -0.552283 9.41421 -0.999998 8.86192 -0.999998L 8.86192 1ZM 9.79871e-07 1L 8.86192 1L 8.86192 -0.999998L 9.79871e-07 -0.999998L 9.79871e-07 1Z"/>
<path id="path10_stroke" d="M 0 -0.999998C -0.552285 -0.999998 -1 -0.552283 -1 1.52588e-06C -1 0.552286 -0.552285 1 0 1L 0 -0.999998ZM 8.86193 1C 9.41421 1 9.86193 0.552286 9.86193 1.52588e-06C 9.86193 -0.552283 9.41421 -0.999998 8.86193 -0.999998L 8.86193 1ZM 0 1L 8.86193 1L 8.86193 -0.999998L 0 -0.999998L 0 1Z"/>
<path id="path11_stroke" d="M 1.95974e-06 -0.999998C -0.552283 -0.999998 -0.999998 -0.552283 -0.999998 1.52588e-06C -0.999998 0.552286 -0.552283 1 1.95974e-06 1L 1.95974e-06 -0.999998ZM 17.0817 1C 17.634 1 18.0817 0.552286 18.0817 1.52588e-06C 18.0817 -0.552283 17.634 -0.999998 17.0817 -0.999998L 17.0817 1ZM 1.95974e-06 1L 17.0817 1L 17.0817 -0.999998L 1.95974e-06 -0.999998L 1.95974e-06 1Z"/>
<path id="path12_stroke" d="M 0 0L 0 -1C -0.552285 -1 -1 -0.552285 -1 2.22045e-16L 0 0ZM 9.37566 0L 10.3757 0C 10.3757 -0.552285 9.92795 -1 9.37566 -1L 9.37566 0ZM 9.37566 5.97235L 9.37566 6.97235C 9.92795 6.97235 10.3757 6.52463 10.3757 5.97235L 9.37566 5.97235ZM 0 5.97235L -1 5.97235C -1 6.52463 -0.552285 6.97235 2.22045e-16 6.97235L 0 5.97235ZM 0 1L 9.37566 1L 9.37566 -1L 0 -1L 0 1ZM 8.37566 0L 8.37566 5.97235L 10.3757 5.97235L 10.3757 0L 8.37566 0ZM 9.37566 4.97235L 0 4.97235L 0 6.97235L 9.37566 6.97235L 9.37566 4.97235ZM 1 5.97235L 1 0L -1 0L -1 5.97235L 1 5.97235Z"/>
<path id="path13_stroke" d="M 9.76096 -4.7464e-07L 10.761 -4.7464e-07C 10.761 -0.552285 10.3132 -1 9.76096 -1L 9.76096 -4.7464e-07ZM 3.59614 -4.7464e-07L 3.59614 -1C 3.04386 -1 2.59614 -0.552285 2.59614 -4.7464e-07L 3.59614 -4.7464e-07ZM 3.59614 36.9539L 3.59614 37.9539C 4.14843 37.9539 4.59614 37.5062 4.59614 36.9539L 3.59614 36.9539ZM -9.79872e-07 36.9539L -9.79872e-07 35.9539C -0.552286 35.9539 -1 36.4016 -1 36.9539L -9.79872e-07 36.9539ZM -9.79872e-07 40.3134L -1 40.3134C -1 40.8656 -0.552286 41.3134 -9.79872e-07 41.3134L -9.79872e-07 40.3134ZM 3.59614 40.3134L 4.59614 40.3134C 4.59614 39.7611 4.14843 39.3134 3.59614 39.3134L 3.59614 40.3134ZM 3.59614 43.424L 2.59614 43.424C 2.59614 43.7262 2.73283 44.0122 2.96798 44.202L 3.59614 43.424ZM 6.67855 45.9124L 6.05039 46.6905C 6.4169 46.9864 6.94021 46.9864 7.30671 46.6905L 6.67855 45.9124ZM 9.76096 43.424L 10.3891 44.202C 10.6243 44.0122 10.761 43.7262 10.761 43.424L 9.76096 43.424ZM 9.76096 40.3134L 9.76096 39.3134C 9.20868 39.3134 8.76096 39.7611 8.76096 40.3134L 9.76096 40.3134ZM 13.4855 40.3134L 13.4855 41.3134C 14.0378 41.3134 14.4855 40.8656 14.4855 40.3134L 13.4855 40.3134ZM 13.4855 36.9539L 14.4855 36.9539C 14.4855 36.4016 14.0378 35.9539 13.4855 35.9539L 13.4855 36.9539ZM 9.76096 36.9539L 8.76096 36.9539C 8.76096 37.5062 9.20868 37.9539 9.76096 37.9539L 9.76096 36.9539ZM 9.76096 -1L 3.59614 -1L 3.59614 1L 9.76096 1L 9.76096 -1ZM 2.59614 -4.7464e-07L 2.59614 36.9539L 4.59614 36.9539L 4.59614 -4.7464e-07L 2.59614 -4.7464e-07ZM 3.59614 35.9539L -9.79872e-07 35.9539L -9.79872e-07 37.9539L 3.59614 37.9539L 3.59614 35.9539ZM -1 36.9539L -1 40.3134L 0.999999 40.3134L 0.999999 36.9539L -1 36.9539ZM -9.79872e-07 41.3134L 3.59614 41.3134L 3.59614 39.3134L -9.79872e-07 39.3134L -9.79872e-07 41.3134ZM 2.59614 40.3134L 2.59614 43.424L 4.59614 43.424L 4.59614 40.3134L 2.59614 40.3134ZM 2.96798 44.202L 6.05039 46.6905L 7.30671 45.1344L 4.2243 42.6459L 2.96798 44.202ZM 7.30671 46.6905L 10.3891 44.202L 9.1328 42.6459L 6.05039 45.1344L 7.30671 46.6905ZM 10.761 43.424L 10.761 40.3134L 8.76096 40.3134L 8.76096 43.424L 10.761 43.424ZM 9.76096 41.3134L 13.4855 41.3134L 13.4855 39.3134L 9.76096 39.3134L 9.76096 41.3134ZM 14.4855 40.3134L 14.4855 36.9539L 12.4855 36.9539L 12.4855 40.3134L 14.4855 40.3134ZM 13.4855 35.9539L 9.76096 35.9539L 9.76096 37.9539L 13.4855 37.9539L 13.4855 35.9539ZM 10.761 36.9539L 10.761 -4.7464e-07L 8.76096 -4.7464e-07L 8.76096 36.9539L 10.761 36.9539Z"/>
<path id="path14_stroke" d="M 13.4855 36.9539L 14.4855 36.9539C 14.4855 36.4016 14.0378 35.9539 13.4855 35.9539L 13.4855 36.9539ZM 10.0178 36.9539L 9.01783 36.9539C 9.01783 37.5062 9.46555 37.9539 10.0178 37.9539L 10.0178 36.9539ZM 10.0178 -4.7464e-07L 11.0178 -4.7464e-07C 11.0178 -0.552285 10.5701 -1 10.0178 -1L 10.0178 -4.7464e-07ZM 3.85301 -4.7464e-07L 3.85301 -1C 3.30073 -1 2.85301 -0.552285 2.85301 -4.7464e-07L 3.85301 -4.7464e-07ZM 3.85301 36.9539L 3.85301 37.9539C 4.4053 37.9539 4.85301 37.5062 4.85301 36.9539L 3.85301 36.9539ZM 9.79872e-07 36.9539L 9.79872e-07 35.9539C -0.552284 35.9539 -0.999999 36.4016 -0.999999 36.9539L 9.79872e-07 36.9539ZM 9.79872e-07 40.3134L -0.999999 40.3134C -0.999999 40.8656 -0.552284 41.3134 9.79872e-07 41.3134L 9.79872e-07 40.3134ZM 3.85301 40.3134L 4.85301 40.3134C 4.85301 39.7611 4.4053 39.3134 3.85301 39.3134L 3.85301 40.3134ZM 3.85301 43.424L 2.85301 43.424C 2.85301 43.7262 2.9897 44.0122 3.22485 44.202L 3.85301 43.424ZM 6.93542 45.9124L 6.30726 46.6905C 6.67377 46.9864 7.19707 46.9864 7.56358 46.6905L 6.93542 45.9124ZM 10.0178 43.424L 10.646 44.202C 10.8811 44.0122 11.0178 43.7262 11.0178 43.424L 10.0178 43.424ZM 10.0178 40.3134L 10.0178 39.3134C 9.46555 39.3134 9.01783 39.7611 9.01783 40.3134L 10.0178 40.3134ZM 13.4855 40.3134L 13.4855 41.3134C 14.0378 41.3134 14.4855 40.8656 14.4855 40.3134L 13.4855 40.3134ZM 13.4855 35.9539L 10.0178 35.9539L 10.0178 37.9539L 13.4855 37.9539L 13.4855 35.9539ZM 11.0178 36.9539L 11.0178 -4.7464e-07L 9.01783 -4.7464e-07L 9.01783 36.9539L 11.0178 36.9539ZM 10.0178 -1L 3.85301 -1L 3.85301 1L 10.0178 1L 10.0178 -1ZM 2.85301 -4.7464e-07L 2.85301 36.9539L 4.85301 36.9539L 4.85301 -4.7464e-07L 2.85301 -4.7464e-07ZM 3.85301 35.9539L 9.79872e-07 35.9539L 9.79872e-07 37.9539L 3.85301 37.9539L 3.85301 35.9539ZM -0.999999 36.9539L -0.999999 40.3134L 1 40.3134L 1 36.9539L -0.999999 36.9539ZM 9.79872e-07 41.3134L 3.85301 41.3134L 3.85301 39.3134L 9.79872e-07 39.3134L 9.79872e-07 41.3134ZM 2.85301 40.3134L 2.85301 43.424L 4.85301 43.424L 4.85301 40.3134L 2.85301 40.3134ZM 3.22485 44.202L 6.30726 46.6905L 7.56358 45.1344L 4.48117 42.6459L 3.22485 44.202ZM 7.56358 46.6905L 10.646 44.202L 9.38967 42.6459L 6.30726 45.1344L 7.56358 46.6905ZM 11.0178 43.424L 11.0178 40.3134L 9.01783 40.3134L 9.01783 43.424L 11.0178 43.424ZM 10.0178 41.3134L 13.4855 41.3134L 13.4855 39.3134L 10.0178 39.3134L 10.0178 41.3134ZM 14.4855 40.3134L 14.4855 36.9539L 12.4855 36.9539L 12.4855 40.3134L 14.4855 40.3134Z"/>
<path id="path15_stroke" d="M -9.79872e-07 -1.89856e-06L -9.79872e-07 -1C -0.552286 -1 -1 -0.552287 -1 -1.89856e-06L -9.79872e-07 -1.89856e-06ZM 13.4855 -1.89856e-06L 14.4855 -1.89856e-06C 14.4855 -0.552287 14.0378 -1 13.4855 -1L 13.4855 -1.89856e-06ZM 13.4855 3.48387L 13.4855 4.48387C 14.0378 4.48387 14.4855 4.03616 14.4855 3.48387L 13.4855 3.48387ZM -9.79872e-07 3.48387L -1 3.48387C -1 4.03616 -0.552286 4.48387 -9.79872e-07 4.48387L -9.79872e-07 3.48387ZM -9.79872e-07 0.999998L 13.4855 0.999998L 13.4855 -1L -9.79872e-07 -1L -9.79872e-07 0.999998ZM 12.4855 -1.89856e-06L 12.4855 3.48387L 14.4855 3.48387L 14.4855 -1.89856e-06L 12.4855 -1.89856e-06ZM 13.4855 2.48387L -9.79872e-07 2.48387L -9.79872e-07 4.48387L 13.4855 4.48387L 13.4855 2.48387ZM 0.999999 3.48387L 0.999999 -1.89856e-06L -1 -1.89856e-06L -1 3.48387L 0.999999 3.48387Z"/>
<path id="path16_stroke" d="M 9.79872e-07 -1.89856e-06L 9.79872e-07 -1C -0.552284 -1 -0.999999 -0.552287 -0.999999 -1.89856e-06L 9.79872e-07 -1.89856e-06ZM 13.4855 -1.89856e-06L 14.4855 -1.89856e-06C 14.4855 -0.552287 14.0378 -1 13.4855 -1L 13.4855 -1.89856e-06ZM 13.4855 3.48387L 13.4855 4.48387C 14.0378 4.48387 14.4855 4.03616 14.4855 3.48387L 13.4855 3.48387ZM 9.79872e-07 3.48387L -0.999999 3.48387C -0.999999 4.03616 -0.552284 4.48387 9.79872e-07 4.48387L 9.79872e-07 3.48387ZM 9.79872e-07 0.999998L 13.4855 0.999998L 13.4855 -1L 9.79872e-07 -1L 9.79872e-07 0.999998ZM 12.4855 -1.89856e-06L 12.4855 3.48387L 14.4855 3.48387L 14.4855 -1.89856e-06L 12.4855 -1.89856e-06ZM 13.4855 2.48387L 9.79872e-07 2.48387L 9.79872e-07 4.48387L 13.4855 4.48387L 13.4855 2.48387ZM 1 3.48387L 1 -1.89856e-06L -0.999999 -1.89856e-06L -0.999999 3.48387L 1 3.48387Z"/>
</defs>
</svg>
