<svg width="19" height="27" viewBox="0 0 19 27" version="1.1" xmlns="http://www.w3.org/2000/svg" xmlns:xlink="http://www.w3.org/1999/xlink" xmlns:figma="http://www.figma.com/figma/ns">
<title>Group</title>
<desc>Created using Figma</desc>
<g id="Canvas" transform="translate(-444 -272)" figma:type="canvas">
<g id="Group" style="mix-blend-mode:normal;" figma:type="frame">
<g id="Vector" style="mix-blend-mode:normal;" figma:type="vector">
<use xlink:href="#path0_fill" transform="matrix(-1 0 0 1 463 282.395)" fill="#2A425C" style="mix-blend-mode:normal;"/>
</g>
<g id="Vector" style="mix-blend-mode:normal;" figma:type="vector">
<use xlink:href="#path1_fill" transform="matrix(-1 0 0 1 457.583 272)" fill="#2A425C" style="mix-blend-mode:normal;"/>
</g>
</g>
</g>
<defs>
<path id="path0_fill" d="M 17.6329 2.45757L 13.1363 0L 9.67233 4.05166L 6.24161 0L 1.44527 2.42435C 0.346108 2.98893 -0.220126 4.21771 0.0796448 5.41328L 2.07812 13.3173C 2.57774 15.2768 4.30975 16.6052 6.27492 16.6052L 13.203 16.6052C 15.2681 16.6052 17.0667 15.1439 17.4331 13.1181L 18.9319 5.28044C 19.1984 4.15129 18.6655 3.02214 17.6329 2.45757ZM 17.0001 4.91513L 15.5012 12.7528C 15.3014 13.8155 14.3354 14.6125 13.203 14.6125L 6.27492 14.6125C 5.20906 14.6125 4.27644 13.8819 4.00998 12.8524L 2.0115 4.94834C 1.94489 4.64945 2.07812 4.35055 2.34458 4.21771L 5.70868 2.49077L 8.14016 5.34686L 8.67309 5.97786L 8.67309 11.6236L 10.6716 11.6236L 10.6716 5.97786L 11.2045 5.34686L 13.6027 2.52398L 16.7003 4.21771C 16.9335 4.35055 17.0667 4.61624 17.0001 4.91513Z"/>
<path id="path1_fill" d="M 0.358061 6.97417C 0.557909 8.6679 1.99015 9.9631 3.72216 9.9631L 4.58817 9.9631C 6.32018 9.9631 7.75242 8.6679 7.95227 6.97417L 8.21873 4.54982C 8.48519 2.12546 6.58664 -6.33437e-08 4.12186 -6.33437e-08C 1.65707 -6.33437e-08 -0.241481 2.12546 0.0249823 4.54982L 0.358061 6.97417ZM 2.58969 2.69004C 2.98939 2.22509 3.55562 1.99262 4.15516 1.99262C 4.75471 1.99262 5.32094 2.2583 5.72064 2.69004C 6.12033 3.12177 6.32018 3.71956 6.25356 4.31734L 5.95379 6.7417C 5.88718 7.43911 5.28763 7.97048 4.58817 7.97048L 3.68885 7.97048C 2.98939 7.97048 2.38984 7.43911 2.32323 6.7417L 2.05677 4.31734C 1.99015 3.71956 2.15669 3.15498 2.58969 2.69004Z"/>
</defs>
</svg>
