<svg width="152" height="153" viewBox="0 0 152 153" version="1.1" xmlns="http://www.w3.org/2000/svg" xmlns:xlink="http://www.w3.org/1999/xlink" xmlns:figma="http://www.figma.com/figma/ns">
<title>Group</title>
<desc>Created using Figma</desc>
<g id="Canvas" transform="translate(-325 -5226)" figma:type="canvas">
<g id="Group" style="mix-blend-mode:normal;" figma:type="frame">
<g id="Ellipse" style="mix-blend-mode:normal;" filter="url(#filter0_i)" figma:type="ellipse">
<use xlink:href="#path0_fill" transform="translate(325 5226.23)" fill="#EEF2F5" style="mix-blend-mode:normal;"/>
</g>
<g id="Vector" style="mix-blend-mode:normal;" filter="url(#filter1_d)" figma:type="vector">
<use xlink:href="#path1_fill" transform="translate(351 5244.23)" fill="url(#paint1_linear)" style="mix-blend-mode:normal;"/>
</g>
<g id="noun_663872_cc" style="mix-blend-mode:normal;" figma:type="frame">
<g id="Vector" style="mix-blend-mode:normal;" figma:type="vector">
<use xlink:href="#path2_fill" transform="translate(371 5266.55)" fill="#7E7E7E" style="mix-blend-mode:normal;"/>
</g>
<g id="Vector" style="mix-blend-mode:normal;" figma:type="vector">
<use xlink:href="#path3_fill" transform="translate(392.935 5320.99)" fill="#7E7E7E" style="mix-blend-mode:normal;"/>
</g>
</g>
</g>
</g>
<defs>
<filter id="filter0_i" filterUnits="userSpaceOnUse" x="321" y="5223" width="160" height="160" color-interpolation-filters="sRGB">
<feFlood flood-opacity="0" result="BackgroundImageFix"/>
<feBlend mode="normal" in="SourceGraphic" in2="BackgroundImageFix" result="shape"/>
<desc>type="innerShadow" x="0" y="1" size="4" spread="0" color="0,0,0,0.25" blend="normal"</desc>
<feColorMatrix in="SourceAlpha" type="matrix" values="0 0 0 0 0 0 0 0 0 0 0 0 0 0 0 0 0 0 255 0" result="hardAlpha"/>
<feOffset dx="0" dy="1"/>
<feGaussianBlur stdDeviation="2"/>
<feComposite in2="hardAlpha" operator="arithmetic" k2="-1" k3="1"/>
<feColorMatrix type="matrix" values="0 0 0 0 0 0 0 0 0 0 0 0 0 0 0 0 0 0 0.25 0"/>
<feBlend mode="normal" in2="shape" result="effect1_innerShadow"/>
</filter>
<filter id="filter1_d" filterUnits="userSpaceOnUse" x="347" y="5245" width="109" height="122" color-interpolation-filters="sRGB">
<feFlood flood-opacity="0" result="BackgroundImageFix"/>
<desc>type="dropShadow" x="0" y="4" size="4" spread="0" color="0,0,0,0.25" blend="normal"</desc>
<feColorMatrix in="SourceAlpha" type="matrix" values="0 0 0 0 0 0 0 0 0 0 0 0 0 0 0 0 0 0 255 0"/>
<feOffset dx="0" dy="4"/>
<feGaussianBlur stdDeviation="2"/>
<feColorMatrix type="matrix" values="0 0 0 0 0 0 0 0 0 0 0 0 0 0 0 0 0 0 0.25 0"/>
<feBlend mode="normal" in2="BackgroundImageFix" result="effect1_dropShadow"/>
<feBlend mode="normal" in="SourceGraphic" in2="effect1_dropShadow" result="shape"/>
</filter>
<linearGradient id="paint1_linear" x1="0" y1="0" x2="1" y2="0" gradientUnits="userSpaceOnUse" gradientTransform="matrix(6.12323e-15 116 -100 7.10295e-15 100 7.91142e-23)">
<stop offset="0.0222222" stop-color="#FFFFFF"/>
<stop offset="1" stop-color="#F2F2F2"/>
</linearGradient>
<path id="path0_fill" d="M 152 76C 152 117.974 117.974 152 76 152C 34.0264 152 0 117.974 0 76C 0 34.0264 34.0264 0 76 0C 117.974 0 152 34.0264 152 76Z"/>
<path id="path1_fill" d="M 100 82.4546C 100 85.3099 98.4781 87.9489 96.0067 89.3789L 54.0067 113.682C 51.5281 115.116 48.4719 115.116 45.9933 113.682L 3.99333 89.3789C 1.52188 87.9489 0 85.3099 0 82.4546L 0 33.671C 0 30.8215 1.51572 28.187 3.97919 26.7549L 45.9792 2.33755C 48.465 0.89242 51.535 0.89242 54.0208 2.33755L 96.0208 26.7549C 98.4843 28.187 100 30.8215 100 33.671L 100 82.4546Z"/>
<path id="path2_fill" d="M 58.044 33.8141C 53.4957 34.812 50.4547 37.607 48.4845 40.3747C 46.8621 39.0927 43.8766 37.4428 38.7607 36.7548C 34.5803 36.1906 31.4958 36.9592 29.2864 38.1036C 29.3509 37.6448 29.4096 37.1797 29.4418 36.6944C 30.1206 26.4672 32.3017 18.474 33.1294 15.7362L 34.3372 15.6686C 34.3219 16.3397 34.4088 17.0109 34.5256 17.5936C 34.5111 17.7803 34.5248 17.9718 34.5803 18.1626C 34.7116 18.6117 35.9467 22.5575 39.0658 22.8802C 39.3283 22.9076 39.5851 22.9205 39.8347 22.9205C 44.3057 22.9205 46.8283 18.7517 48.2164 16.4556C 49.9313 13.622 51.5569 10.6684 50.9788 8.42628C 50.4345 6.31694 47.6471 4.96973 44.3331 3.55009L 43.6254 3.24668C 40.6753 1.9542 37.6818 1.15102 37.3943 1.07537C 34.9732 0.324504 31.8098 -0.415095 30.3871 0.273802C 29.0369 0.928093 27.8332 2.68092 27.408 3.34969C 26.8662 3.85993 24.9958 5.64333 22.7365 8.04803L 22.3831 8.42306C 19.5804 11.3951 14.3614 16.928 8.97169 26.9251C 3.76236 36.5874 2.27042 51.5483 2.03692 54.2701C 1.6424 54.8938 0.858988 56.2225 0.299409 57.7709C -0.754534 60.6859 1.22131 62.4483 2.40085 63.5018C 2.63998 63.7159 2.87509 63.9227 3.07557 64.1344C 4.58442 65.7287 8.01597 66.1512 9.25349 66.2542C 10.7873 66.9753 18.1246 70.1164 30.995 70.864C 32.6109 70.9582 34.1037 71 35.4853 71C 48.1519 71 51.3202 67.4163 51.668 66.9656C 52.2115 66.2614 52.1004 65.2257 51.3959 64.6832C 50.6914 64.1392 49.7019 64.247 49.1584 64.9504C 49.1254 64.985 45.7558 68.4995 31.1826 67.6497C 17.6818 66.865 10.4813 63.2741 10.4129 63.2395C 10.4097 63.2378 10.4065 63.237 10.4041 63.2362C 10.3453 63.2065 10.2817 63.1863 10.2189 63.1638C 10.1794 63.1493 10.1408 63.13 10.1013 63.1195C 10.0788 63.1131 10.0546 63.1123 10.0321 63.1075C 9.94834 63.0882 9.8646 63.0721 9.78086 63.0664C 9.77925 63.0664 9.77684 63.0656 9.77523 63.0656C 8.13031 62.965 5.93546 62.4709 5.41614 61.922C 5.15688 61.6484 4.85656 61.3772 4.54658 61.1003C 3.25753 59.9503 3.0643 59.5946 3.32839 58.8638C 3.9403 57.1706 4.92258 55.7372 4.93144 55.7244C 4.94996 55.6978 4.96123 55.668 4.97814 55.6407C 5.01115 55.5867 5.04336 55.5328 5.06993 55.4749C 5.09006 55.4306 5.10455 55.3855 5.12065 55.3405C 5.13837 55.2898 5.15608 55.2399 5.16896 55.1868C 5.18184 55.1328 5.18909 55.0789 5.19714 55.025C 5.20197 54.992 5.21163 54.9606 5.21405 54.9268C 5.22693 54.761 6.50954 38.2782 11.8066 28.4518C 16.995 18.8273 22.024 13.4956 24.7269 10.6306L 25.0836 10.2515C 27.6375 7.53458 29.7389 5.57734 29.7599 5.55803C 29.7623 5.55561 29.7647 5.55239 29.7671 5.54998C 29.78 5.53791 29.7905 5.52262 29.8026 5.50974C 29.8839 5.42846 29.9531 5.34073 30.0135 5.24738C 30.0216 5.2345 30.0336 5.22565 30.0409 5.21277C 30.503 4.45225 31.2832 3.47846 31.7244 3.20725C 32.3774 3.12516 34.5433 3.55974 36.4821 4.16172C 36.4942 4.16575 36.5054 4.16575 36.5175 4.16897C 36.5296 4.17219 36.5409 4.17862 36.5529 4.18184C 36.5819 4.18909 39.5256 4.9649 42.3331 6.19461L 43.0642 6.51009C 44.2832 7.03159 47.5207 8.41904 47.8605 9.23107C 48.1487 10.3489 46.1262 13.6912 45.4619 14.7897C 43.8726 17.4165 42.1028 19.9597 39.3983 19.678C 38.8702 19.6233 38.2776 18.7332 37.9128 17.897C 37.9048 17.864 37.9032 17.831 37.8935 17.7972C 37.6681 17.0431 37.5401 16.1273 37.565 15.5921C 37.875 15.7056 38.4088 15.9639 39.2341 16.5506C 39.9595 17.0657 40.9636 16.895 41.4788 16.1707C 41.9949 15.4464 41.8243 14.4413 41.0988 13.9262C 39.9136 13.0844 38.3066 12.1203 36.8363 12.3029L 31.8396 12.5838C 31.1866 12.6208 30.6206 13.0482 30.408 13.6662C 30.2736 14.0566 27.0997 23.372 26.2293 36.4803C 26.0739 38.8158 25.4435 40.7755 24.6399 42.3794C 24.5836 42.4784 24.5473 42.5476 24.5353 42.5709C 24.5288 42.5838 24.5264 42.5975 24.52 42.6104C 22.71 46.0758 20.1222 47.798 19.9668 47.8994C 19.2164 48.3775 18.9966 49.3722 19.4749 50.1222C 19.7825 50.6035 20.3026 50.8667 20.834 50.8667C 21.1303 50.8667 21.4298 50.7846 21.6979 50.614C 21.8992 50.486 25.2237 48.3147 27.4636 43.9254C 27.8476 43.2655 30.6898 38.9172 38.3315 39.9441C 43.2333 40.6032 45.7373 42.2482 46.7985 43.1721C 45.7486 45.2501 45.3202 46.8822 45.2776 47.0528C 45.0602 47.9147 45.5835 48.7895 46.4458 49.0068C 46.5779 49.0406 46.7099 49.0559 46.8403 49.0559C 47.561 49.0559 48.2164 48.569 48.4007 47.8391C 48.4233 47.7481 50.792 38.6983 58.7348 36.9568C 59.6036 36.766 60.1535 35.9081 59.9619 35.0398C 59.7719 34.1738 58.9168 33.6225 58.044 33.8141Z"/>
<path id="path3_fill" d="M 21.837 1.47349C 21.4666 1.74712 12.6478 8.07515 2.59388 0.334718C 1.88857 -0.207707 0.878908 -0.0773333 0.334626 0.627659C -0.208046 1.33185 -0.0768047 2.34266 0.627702 2.88508C 5.02705 6.27162 9.2871 7.34843 12.9272 7.34843C 19.2428 7.34843 23.6912 4.10675 23.7613 4.05444C 24.4714 3.52328 24.6164 2.51891 24.0866 1.80748C 23.5568 1.09605 22.5479 0.947966 21.837 1.47349Z"/>
</defs>
</svg>
