<svg width="152" height="152" viewBox="0 0 152 152" version="1.1" xmlns="http://www.w3.org/2000/svg" xmlns:xlink="http://www.w3.org/1999/xlink" xmlns:figma="http://www.figma.com/figma/ns">
<title>Group</title>
<desc>Created using Figma</desc>
<g id="Canvas" transform="translate(-22 1225)" figma:type="canvas">
<g id="Group" style="mix-blend-mode:normal;" figma:type="frame">
<g id="Ellipse" style="mix-blend-mode:normal;" filter="url(#filter0_i)" figma:type="ellipse">
<use xlink:href="#path0_fill" transform="translate(22 -1225)" fill="#EEF2F5" style="mix-blend-mode:normal;"/>
</g>
<g id="Vector" style="mix-blend-mode:normal;" filter="url(#filter1_d)" figma:type="vector">
<use xlink:href="#path1_fill" transform="translate(48 -1207)" fill="url(#paint1_linear)" style="mix-blend-mode:normal;"/>
</g>
<g id="Group" style="mix-blend-mode:normal;" figma:type="frame">
<g id="Group" style="mix-blend-mode:normal;" figma:type="frame">
<g id="Group" style="mix-blend-mode:normal;" figma:type="frame">
<g id="Vector" style="mix-blend-mode:normal;" figma:type="vector">
<use xlink:href="#path2_fill" transform="translate(73.9977 -1176.6)" fill="#7E7E7E" style="mix-blend-mode:normal;"/>
</g>
</g>
<g id="Group" style="mix-blend-mode:normal;" figma:type="frame">
<g id="Vector" style="mix-blend-mode:normal;" figma:type="vector">
<use xlink:href="#path3_fill" transform="translate(54.7417 -1162.83)" fill="#7E7E7E" style="mix-blend-mode:normal;"/>
</g>
</g>
<g id="Group" style="mix-blend-mode:normal;" figma:type="frame">
<g id="Vector" style="mix-blend-mode:normal;" figma:type="vector">
<use xlink:href="#path4_fill" transform="translate(108.742 -1153.18)" fill="#7E7E7E" style="mix-blend-mode:normal;"/>
</g>
</g>
<g id="Group" style="mix-blend-mode:normal;" figma:type="frame">
<g id="Vector" style="mix-blend-mode:normal;" figma:type="vector">
<use xlink:href="#path5_fill" transform="translate(87.035 -1159.47)" fill="#7E7E7E" style="mix-blend-mode:normal;"/>
</g>
</g>
</g>
</g>
</g>
</g>
<defs>
<filter id="filter0_i" filterUnits="userSpaceOnUse" x="18" y="-1228" width="160" height="159" color-interpolation-filters="sRGB">
<feFlood flood-opacity="0" result="BackgroundImageFix"/>
<feBlend mode="normal" in="SourceGraphic" in2="BackgroundImageFix" result="shape"/>
<desc>type="innerShadow" x="0" y="1" size="4" spread="0" color="0,0,0,0.25" blend="normal"</desc>
<feColorMatrix in="SourceAlpha" type="matrix" values="0 0 0 0 0 0 0 0 0 0 0 0 0 0 0 0 0 0 255 0" result="hardAlpha"/>
<feOffset dx="0" dy="1"/>
<feGaussianBlur stdDeviation="2"/>
<feComposite in2="hardAlpha" operator="arithmetic" k2="-1" k3="1"/>
<feColorMatrix type="matrix" values="0 0 0 0 0 0 0 0 0 0 0 0 0 0 0 0 0 0 0.25 0"/>
<feBlend mode="normal" in2="shape" result="effect1_innerShadow"/>
</filter>
<filter id="filter1_d" filterUnits="userSpaceOnUse" x="44" y="-1206" width="109" height="122" color-interpolation-filters="sRGB">
<feFlood flood-opacity="0" result="BackgroundImageFix"/>
<desc>type="dropShadow" x="0" y="4" size="4" spread="0" color="0,0,0,0.25" blend="normal"</desc>
<feColorMatrix in="SourceAlpha" type="matrix" values="0 0 0 0 0 0 0 0 0 0 0 0 0 0 0 0 0 0 255 0"/>
<feOffset dx="0" dy="4"/>
<feGaussianBlur stdDeviation="2"/>
<feColorMatrix type="matrix" values="0 0 0 0 0 0 0 0 0 0 0 0 0 0 0 0 0 0 0.25 0"/>
<feBlend mode="normal" in2="BackgroundImageFix" result="effect1_dropShadow"/>
<feBlend mode="normal" in="SourceGraphic" in2="effect1_dropShadow" result="shape"/>
</filter>
<linearGradient id="paint1_linear" x1="0" y1="0" x2="1" y2="0" gradientUnits="userSpaceOnUse" gradientTransform="matrix(6.12323e-15 116 -100 7.10295e-15 100 7.91142e-23)">
<stop offset="0.0222222" stop-color="#FFFFFF"/>
<stop offset="1" stop-color="#F2F2F2"/>
</linearGradient>
<path id="path0_fill" d="M 152 76C 152 117.974 117.974 152 76 152C 34.0264 152 0 117.974 0 76C 0 34.0264 34.0264 0 76 0C 117.974 0 152 34.0264 152 76Z"/>
<path id="path1_fill" d="M 100 82.4546C 100 85.3099 98.4781 87.9489 96.0067 89.3789L 54.0067 113.682C 51.5281 115.116 48.4719 115.116 45.9933 113.682L 3.99333 89.3789C 1.52188 87.9489 0 85.3099 0 82.4546L 0 33.671C 0 30.8215 1.51572 28.187 3.97919 26.7549L 45.9792 2.33755C 48.465 0.89242 51.535 0.89242 54.0208 2.33755L 96.0208 26.7549C 98.4843 28.187 100 30.8215 100 33.671L 100 82.4546Z"/>
<path id="path2_fill" d="M 49.4192 47.206L 3.92325 47.206C 2.36825 47.206 1.10125 46.556 0.444248 45.421C -0.208752 44.286 -0.139751 42.864 0.637249 41.519L 23.3853 2.119C 24.1632 0.773 25.3603 7.17163e-07 26.6702 7.17163e-07C 27.9792 7.17163e-07 29.1763 0.773 29.9543 2.119L 52.7013 41.519C 53.4783 42.867 53.5493 44.289 52.8943 45.421C 52.2413 46.555 50.9742 47.206 49.4192 47.206ZM 3.98325 43.377L 49.3582 43.377L 26.6712 4.081L 3.98325 43.377Z"/>
<path id="path3_fill" d="M 28.3452 33.429L 3.92325 33.429C 2.36625 33.429 1.10125 32.779 0.444248 31.644C -0.208751 30.509 -0.139751 29.087 0.637249 27.742L 15.4322 2.119C 16.2072 0.770999 17.4072 -7.62939e-07 18.7153 -7.62939e-07C 20.0233 -7.62939e-07 21.2212 0.770999 21.9982 2.119L 30.0002 15.976L 26.6862 17.888L 18.7153 4.083L 3.98125 29.603L 28.3433 29.603L 28.3452 33.429Z"/>
<path id="path4_fill" d="M 16.336 23.785L 0.451998 23.785L 0.451998 19.959L 16.276 19.959L 7.11 4.084L 3.313 10.66L 2.19727e-06 8.746L 3.827 2.119C 4.604 0.771 5.802 2.44141e-07 7.11 2.44141e-07C 8.42 2.44141e-07 9.618 0.771 10.393 2.119L 19.62 18.098C 20.397 19.446 20.468 20.868 19.813 22C 19.157 23.134 17.892 23.785 16.336 23.785Z"/>
<path id="path5_fill" d="M 7.249 10.8548C 6.662 10.8548 6.075 10.6968 5.561 10.3648L 1.46484e-06 6.75778L 2.081 3.54678L 7.122 6.81678L 11.855 1.08778C 12.904 -0.182217 14.795 -0.367216 16.072 0.675784L 20.681 4.44378L 23.781 1.06078L 26.603 3.64478L 23.015 7.56278C 21.919 8.75578 20.077 8.89078 18.82 7.86578L 14.285 4.15678L 9.678 9.73278C 9.071 10.4638 8.163 10.8548 7.249 10.8548Z"/>
</defs>
</svg>
