<svg id="Слой_1" data-name="Слой 1" xmlns="http://www.w3.org/2000/svg" viewBox="0 0 413 53"><title>Монтажная область 1 копия</title><path d="M60.9,9.14q5.48,0,8,1.35a4.41,4.41,0,0,1,2.57,4.15,6.36,6.36,0,0,1-.82,3.26,7.56,7.56,0,0,1-2.16,2.37,13,13,0,0,1-3.1,1.64,24,24,0,0,1-3.63,1l-.09.41a15,15,0,0,1,3,.63,9.78,9.78,0,0,1,2.61,1.23,6.11,6.11,0,0,1,1.86,1.92,5.23,5.23,0,0,1,.68,2.75A7.83,7.83,0,0,1,65.94,37Q62,39.4,54.39,39.4H37.85l.36-1.56q.53,0,1.59-.16a9.08,9.08,0,0,0,1.57-.31,2.61,2.61,0,0,0,1.27-.83,3.23,3.23,0,0,0,.61-1.3l4.89-21.15q.11-.45.15-.75a3.5,3.5,0,0,0,0-.45,1.54,1.54,0,0,0-.91-1.4,9.3,9.3,0,0,0-3-.8l.36-1.56Zm.57,20.25a4.62,4.62,0,0,0-1.58-3.76,7.18,7.18,0,0,0-4.67-1.31l-1.06,0-.87.05-2.6,11.25q0,.79,1.17,1.35a5.83,5.83,0,0,0,2.56.55,6.52,6.52,0,0,0,4.94-2.28A8.34,8.34,0,0,0,61.47,29.4Zm1.66-14.35A3.58,3.58,0,0,0,61.8,12a5.8,5.8,0,0,0-3.51-1l-1,0-.9.05L53.75,22.45h1.43a8.09,8.09,0,0,0,5.81-2A7.05,7.05,0,0,0,63.13,15.05Z"/><path d="M83.81,40.1a13.27,13.27,0,0,1-4.49-.69,8.61,8.61,0,0,1-3.19-1.93,8,8,0,0,1-1.86-2.88A10.21,10.21,0,0,1,73.66,31a13.13,13.13,0,0,1,.94-4.88,12.81,12.81,0,0,1,2.79-4.26,13.15,13.15,0,0,1,4.43-2.94,15.15,15.15,0,0,1,5.93-1.13A11.29,11.29,0,0,1,93.57,19a4,4,0,0,1,2,3.65,5.37,5.37,0,0,1-1.73,4,10.62,10.62,0,0,1-4.69,2.48,37.6,37.6,0,0,1-4,1q-1.65.3-4,.55a15.87,15.87,0,0,0,.26,2.11,7.18,7.18,0,0,0,.64,2,3.88,3.88,0,0,0,1.45,1.52,4.57,4.57,0,0,0,2.39.56,8.73,8.73,0,0,0,4.27-1,11,11,0,0,0,3.36-3.08L95,34.11a14.24,14.24,0,0,1-4.91,4.36A13,13,0,0,1,83.81,40.1Zm4.82-16.89A4.92,4.92,0,0,0,88,20.43a2.1,2.1,0,0,0-1.83-1q-1.64,0-3.1,2.68a17.76,17.76,0,0,0-1.87,6.77q1.26-.15,2.5-.38a9.31,9.31,0,0,0,2-.55,5,5,0,0,0,2.3-1.81A5.42,5.42,0,0,0,88.63,23.22Z"/><path d="M123.64,38.06q-2.11.83-3.37,1.27a8.91,8.91,0,0,1-2.92.44,5.93,5.93,0,0,1-3.83-1.2,3.92,3.92,0,0,1-1.5-3.23q0-1.11.06-1.74a10.56,10.56,0,0,1,.32-1.59l1.33-4.94q.51-2,.71-3a10.21,10.21,0,0,0,.2-1.84,1.07,1.07,0,0,0-.5-.95,2.62,2.62,0,0,0-1.44-.33,3.14,3.14,0,0,0-1.36.29A4.19,4.19,0,0,0,110,22.38a11.51,11.51,0,0,0-1.37,2.36q-.66,1.46-1.49,3.91t-1.62,4.42a18.76,18.76,0,0,1-1.83,3.53A9.41,9.41,0,0,1,101.5,39a4.7,4.7,0,0,1-2.8.8,3.38,3.38,0,0,1-2.3-.8,2.91,2.91,0,0,1-.92-2.31,4.06,4.06,0,0,1,1-2.86,3.11,3.11,0,0,1,2.39-1,3.34,3.34,0,0,1,1.83.5,8,8,0,0,1,1.39,1.1,19.32,19.32,0,0,0,1.64-3.4q.79-2.06,1-2.72.64-1.81,1.39-3.69A13.45,13.45,0,0,1,108,21.19a9.11,9.11,0,0,1,3.08-2.47,10.47,10.47,0,0,1,4.77-1,8.81,8.81,0,0,1,4.48,1,2.8,2.8,0,0,1,1.64,2.4,10.73,10.73,0,0,1-.13,1.65,15.44,15.44,0,0,1-.38,1.74l-1.87,7q-.19.7-.36,1.65a8.91,8.91,0,0,0-.17,1.5,2.13,2.13,0,0,0,.53,1.68,3,3,0,0,0,1.9.45,5.49,5.49,0,0,0,1.45-.22,8,8,0,0,0,1.17-.39Z"/><path d="M151.1,26.63a13.2,13.2,0,0,1-1,5.14,12.6,12.6,0,0,1-2.9,4.26,14.22,14.22,0,0,1-4.74,3,16.77,16.77,0,0,1-6.11,1.06A10.8,10.8,0,0,1,129,37.66a8.28,8.28,0,0,1-2.79-6.6,13.09,13.09,0,0,1,1.05-5.27,12.94,12.94,0,0,1,3-4.24,13.69,13.69,0,0,1,4.61-2.8,16.53,16.53,0,0,1,5.91-1,11.39,11.39,0,0,1,7.6,2.36A8.13,8.13,0,0,1,151.1,26.63Zm-7.5-2.41a6.36,6.36,0,0,0-.84-3.67,2.82,2.82,0,0,0-2.44-1.17,4.26,4.26,0,0,0-3,1.31,9.41,9.41,0,0,0-2.22,3.85A22.31,22.31,0,0,0,134,29.11a34.61,34.61,0,0,0-.32,4.4,6.42,6.42,0,0,0,.85,3.74A2.88,2.88,0,0,0,137,38.42a3.94,3.94,0,0,0,3-1.43,10.5,10.5,0,0,0,2-3.52,23.88,23.88,0,0,0,1.13-4.53A31,31,0,0,0,143.6,24.22Z"/><path d="M179,40.23a16.44,16.44,0,0,1-5.42-.86,12.51,12.51,0,0,1-4.31-2.49,11.24,11.24,0,0,1-2.79-4,13.28,13.28,0,0,1-1-5.28,19,19,0,0,1,1.44-7.37A19.69,19.69,0,0,1,171,14.1a19.51,19.51,0,0,1,13.88-5.79,21.45,21.45,0,0,1,5,.61,13.19,13.19,0,0,1,3.79,1.4l1.6-1.17h1.86l-2.37,11h-1.88q-.43-4.84-2.57-7.37a6.9,6.9,0,0,0-5.51-2.53,7.76,7.76,0,0,0-4.56,1.47,12.64,12.64,0,0,0-3.71,4.52,22.31,22.31,0,0,0-2,5.84,30.51,30.51,0,0,0-.69,6.22A9.76,9.76,0,0,0,175.88,35a7,7,0,0,0,5.54,2.37,10.1,10.1,0,0,0,5.65-1.71,20.41,20.41,0,0,0,5-4.93l1.64,1.11A23.26,23.26,0,0,1,191.23,35a15.92,15.92,0,0,1-3.3,2.72,17.06,17.06,0,0,1-4,1.85A16.74,16.74,0,0,1,179,40.23Z"/><path d="M206.49,40.1a13.27,13.27,0,0,1-4.49-.69,8.61,8.61,0,0,1-3.19-1.93A8,8,0,0,1,197,34.6a10.21,10.21,0,0,1-.62-3.62,13.13,13.13,0,0,1,.94-4.88,12.81,12.81,0,0,1,2.79-4.26,13.15,13.15,0,0,1,4.43-2.94,15.15,15.15,0,0,1,5.93-1.13A11.29,11.29,0,0,1,216.25,19a4,4,0,0,1,2,3.65,5.37,5.37,0,0,1-1.73,4,10.62,10.62,0,0,1-4.69,2.48,37.6,37.6,0,0,1-4,1q-1.65.3-4,.55a15.87,15.87,0,0,0,.26,2.11,7.18,7.18,0,0,0,.64,2,3.88,3.88,0,0,0,1.45,1.52,4.57,4.57,0,0,0,2.39.56,8.73,8.73,0,0,0,4.27-1,11,11,0,0,0,3.36-3.08l1.56,1.3a14.24,14.24,0,0,1-4.91,4.36A13,13,0,0,1,206.49,40.1Zm4.82-16.89a4.92,4.92,0,0,0-.66-2.78,2.1,2.1,0,0,0-1.83-1q-1.64,0-3.1,2.68a17.76,17.76,0,0,0-1.87,6.77q1.26-.15,2.5-.38a9.31,9.31,0,0,0,2-.55,5,5,0,0,0,2.3-1.81A5.42,5.42,0,0,0,211.31,23.22Z"/><path d="M233.27,39.06q-.45-6.16-.66-8.82a64.91,64.91,0,0,0-1.11-7.13h-.21a44,44,0,0,1-2,7.85,23.72,23.72,0,0,1-2.59,5.18A10.65,10.65,0,0,1,224,38.91a4.49,4.49,0,0,1-2.41.9,3.66,3.66,0,0,1-2.55-.82,2.91,2.91,0,0,1-.91-2.27,4.08,4.08,0,0,1,1-2.87,3.13,3.13,0,0,1,2.4-1.06,3.41,3.41,0,0,1,1.88.53,8.54,8.54,0,0,1,1.43,1.13A22.37,22.37,0,0,0,228,27.76a33.18,33.18,0,0,0,1.44-7.5h-3.92L226,18.5l10.76-.45a62.45,62.45,0,0,1,1.47,6.83q.58,3.64.86,7.62l9-14.11,6.77-.32.26.3-3,13.1q-.15.62-.34,1.64a9.11,9.11,0,0,0-.19,1.51,2.13,2.13,0,0,0,.53,1.68,3,3,0,0,0,1.9.45,5.52,5.52,0,0,0,1.45-.22,8,8,0,0,0,1.17-.39l-.47,1.92q-2.11.83-3.32,1.27a8.44,8.44,0,0,1-2.87.44,5.85,5.85,0,0,1-3.81-1.2,3.94,3.94,0,0,1-1.48-3.23,16.3,16.3,0,0,1,.06-1.68,14.2,14.2,0,0,1,.32-1.64l1.93-7.71-.22-.08L237.2,39.06Z"/><path d="M274.52,36h-.15A18.29,18.29,0,0,1,270.11,39a10.54,10.54,0,0,1-4.69,1,4.92,4.92,0,0,1-3.66-1.3,4.32,4.32,0,0,1-1.29-3.16,12.36,12.36,0,0,1,.07-1.34,14.56,14.56,0,0,1,.4-1.92l1.6-6q.15-.6.35-1.63a8.92,8.92,0,0,0,.2-1.53,2.3,2.3,0,0,0-.48-1.65,2.68,2.68,0,0,0-1.87-.48,4.9,4.9,0,0,0-1.4.21q-.71.21-1.23.41l.47-1.92q1.73-.7,3.3-1.2a9.89,9.89,0,0,1,3-.5,5.55,5.55,0,0,1,3.91,1.27,4.11,4.11,0,0,1,1.38,3.15q0,.38-.09,1.41a9.55,9.55,0,0,1-.34,1.9l-1.55,5.68a12.47,12.47,0,0,0-.34,1.61,9.57,9.57,0,0,0-.13,1.25,2.48,2.48,0,0,0,.47,1.59,2,2,0,0,0,1.62.59,5.24,5.24,0,0,0,2.21-.7,11.46,11.46,0,0,0,2.72-2l3.52-15.38,6.8-.3.26.3-3,13.1q-.15.62-.35,1.64a8.68,8.68,0,0,0-.2,1.51,2.11,2.11,0,0,0,.54,1.68,3.06,3.06,0,0,0,1.91.45,5.5,5.5,0,0,0,1.45-.22,8,8,0,0,0,1.17-.39l-.47,1.92q-2.11.83-3.37,1.27a8.91,8.91,0,0,1-2.92.44,6.11,6.11,0,0,1-3.75-1.05A4.5,4.5,0,0,1,274.52,36Z"/><path d="M299.19,27.2h6.89l2-8.83,6.79-.3.25.3-3,13.1q-.15.62-.34,1.64a9.14,9.14,0,0,0-.19,1.51,2.12,2.12,0,0,0,.54,1.68,3,3,0,0,0,1.9.45,5.54,5.54,0,0,0,1.46-.22,8.05,8.05,0,0,0,1.18-.39l-.47,1.92q-2.11.83-3.37,1.27a8.89,8.89,0,0,1-2.92.44,5.92,5.92,0,0,1-3.82-1.2,3.92,3.92,0,0,1-1.5-3.22,15.64,15.64,0,0,1,.06-1.66A16.84,16.84,0,0,1,305,32l.64-2.77h-6.89L296.37,39.4h-7l3-13.11.33-1.56a8,8,0,0,0,.2-1.6,2.22,2.22,0,0,0-.5-1.67,2.74,2.74,0,0,0-1.82-.46,4.87,4.87,0,0,0-1.4.21q-.72.21-1.23.4l.47-1.92q1.73-.7,3.3-1.2a9.86,9.86,0,0,1,3-.5,5.46,5.46,0,0,1,3.94,1.28A4.24,4.24,0,0,1,300,22.45a13.76,13.76,0,0,1-.09,1.51,13,13,0,0,1-.34,1.77Z"/><path d="M333.6,36.73h-.17q-.75.64-1.42,1.17a10.67,10.67,0,0,1-1.7,1.06,11.35,11.35,0,0,1-1.89.77,7.37,7.37,0,0,1-2.19.31,7,7,0,0,1-5.59-2.18,8.87,8.87,0,0,1-1.88-6,14.31,14.31,0,0,1,1-5.47,15.26,15.26,0,0,1,2.79-4.49,13.33,13.33,0,0,1,4.14-3,11.55,11.55,0,0,1,5-1.12,11.35,11.35,0,0,1,3.36.45,6.76,6.76,0,0,1,2.36,1.22L344,18.08l.3.34-3.14,13.11q-.17.66-.36,1.65a8.62,8.62,0,0,0-.19,1.5,2.09,2.09,0,0,0,.55,1.67,3.06,3.06,0,0,0,1.92.46,5.5,5.5,0,0,0,1.44-.23,10.08,10.08,0,0,0,1.18-.38l-.47,1.92q-2.11.83-3.38,1.27a9,9,0,0,1-2.93.44,6.29,6.29,0,0,1-3.5-.86A4.54,4.54,0,0,1,333.6,36.73Zm2.54-13.52A5.78,5.78,0,0,0,336,22.1a2.78,2.78,0,0,0-.45-1.09,2.46,2.46,0,0,0-1-.84,3.64,3.64,0,0,0-1.54-.29,3.91,3.91,0,0,0-2.59,1,9.42,9.42,0,0,0-2.1,2.69,15.53,15.53,0,0,0-1.41,3.86,19.86,19.86,0,0,0-.51,4.5,11,11,0,0,0,.16,1.94,4.54,4.54,0,0,0,.52,1.51,2.7,2.7,0,0,0,1,1,3.34,3.34,0,0,0,1.63.36,3.57,3.57,0,0,0,1.93-.59,8.58,8.58,0,0,0,1.72-1.44Z"/><path d="M373.75,25.92a14.83,14.83,0,0,1-1,5.45A14.17,14.17,0,0,1,370,35.86a13.18,13.18,0,0,1-4.07,3,11.55,11.55,0,0,1-5,1.07,11.22,11.22,0,0,1-3.29-.39,6.71,6.71,0,0,1-2.16-1.12l-1.29,5.69q-.06.26-.13.61a3.32,3.32,0,0,0-.06.5,1.91,1.91,0,0,0,.21.9,1.31,1.31,0,0,0,.64.6,7.33,7.33,0,0,0,1.51.42,14,14,0,0,0,1.73.25l-.34,1.47h-15.4l.34-1.47q.55,0,1.39-.16a9.14,9.14,0,0,0,1.26-.25,2.2,2.2,0,0,0,1.11-.74A3.27,3.27,0,0,0,347,44.9l4.24-18.61.33-1.58a8,8,0,0,0,.2-1.58,2.34,2.34,0,0,0-.47-1.63,2.56,2.56,0,0,0-1.86-.5,5.1,5.1,0,0,0-1.39.21q-.75.21-1.24.4l.47-1.92q1.73-.7,3.32-1.2a9.93,9.93,0,0,1,3-.5,8.61,8.61,0,0,1,2.07.22,4.59,4.59,0,0,1,1.58.71,3.56,3.56,0,0,1,1,1,7.75,7.75,0,0,1,.63,1.17H359a15.13,15.13,0,0,1,3.81-2.52,8.84,8.84,0,0,1,3.55-.81,6.9,6.9,0,0,1,5.56,2.19A8.93,8.93,0,0,1,373.75,25.92Zm-9.48,8.4a17.77,17.77,0,0,0,1.38-3.9,20.58,20.58,0,0,0,.47-4.58,11.62,11.62,0,0,0-.15-1.93,4.37,4.37,0,0,0-.53-1.52,2.71,2.71,0,0,0-1-1,3.31,3.31,0,0,0-1.63-.36,4,4,0,0,0-2.21.7A7.08,7.08,0,0,0,359,23l-2.64,11.71a3.57,3.57,0,0,0,.85,2.44,3.08,3.08,0,0,0,2.45,1,3.93,3.93,0,0,0,2.54-1A8.43,8.43,0,0,0,364.27,34.32Z"/></svg>